# xmcd
#
# Track frame offsets: 
#        150
#        16678
#        29480
#        43020
#        60243
#        77968
#        96854
#        116032
#        130131
#        143860
#
# Disc length: 2156 seconds
#
# Revision: 0
# Processed by: cddbd v1.5.2PL0 Copyright (c) Steve Scherf et al.
# Submitted via: ExactAudioCopy v1.3
#
DISCID=7f086a0a
DTITLE=Sonny Landreth - Blacktop Run
DYEAR=2020
DGENRE=Blues
TTITLE0=Blacktop Run
TTITLE1=Lover Dance With Me
TTITLE2=Mule
TTITLE3=Groovy Goddess
TTITLE4=Somebody Gotta Make A Move
TTITLE5=Beyond Borders
TTITLE6=Don't Ask Me
TTITLE7=The Wilds Of Wonder
TTITLE8=Many Worlds
TTITLE9=Something Grand
EXTD=
EXTT0=
EXTT1=
EXTT2=
EXTT3=
EXTT4=
EXTT5=
EXTT6=
EXTT7=
EXTT8=
EXTT9=
PLAYORDER=
